<svg version="1.1" xmlns="http://www.w3.org/2000/svg" xmlns:xlink="http://www.w3.org/1999/xlink" width="480" height="179.80672" viewBox="0,0,480,179.80672"><g transform="translate(0,-90.09664)"><g data-paper-data="{&quot;isPaintingLayer&quot;:true}" fill-rule="nonzero" stroke-linejoin="miter" stroke-miterlimit="10" stroke-dasharray="" stroke-dashoffset="0" style="mix-blend-mode: normal"><path d="M0,269.90336v-179.80672h480v179.80672z" fill="#008e98" stroke="none" stroke-width="0" stroke-linecap="butt"/><g><path d="M422.7,253.6l7.4,-19.8" fill="none" stroke="#ffe11f" stroke-width="12.5" stroke-linecap="round"/><path d="M416.25,233.625c0,-15.80916 12.81585,-28.625 28.625,-28.625c15.80915,0 28.625,12.81584 28.625,28.625c0,15.80916 -12.81585,28.625 -28.625,28.625c-15.80915,0 -28.625,-12.81584 -28.625,-28.625z" fill="#ffdf00" stroke="none" stroke-width="0" stroke-linecap="butt"/><path d="M461.2,226l-3.8,-15.6" fill="none" stroke="#ffe11f" stroke-width="12.5" stroke-linecap="round"/><text transform="translate(405.1,214) scale(0.32665,0.32665)" font-size="40" xml:space="preserve" fill="#ffdf00" fill-rule="nonzero" stroke="none" stroke-width="1" stroke-linecap="butt" stroke-linejoin="miter" stroke-miterlimit="10" stroke-dasharray="" stroke-dashoffset="0" font-family="Sans Serif" font-weight="normal" text-anchor="start" style="mix-blend-mode: normal"><tspan x="0" dy="0">hi</tspan></text><path d="M438.55945,254.68098l4.4,-1.8" fill="#000000" stroke="#000000" stroke-width="2" stroke-linecap="round"/><path d="M427.85945,227.68097c0,-1.38071 1.11929,-2.5 2.5,-2.5c1.38071,0 2.5,1.11929 2.5,2.5c0,1.38071 -1.11929,2.5 -2.5,2.5c-1.38071,0 -2.5,-1.11929 -2.5,-2.5z" fill="#000000" stroke="none" stroke-width="0.5" stroke-linecap="butt"/><path d="M437.45945,228.28096c0,-1.38071 1.11929,-2.5 2.5,-2.5c1.38071,0 2.5,1.11929 2.5,2.5c0,1.38071 -1.11929,2.5 -2.5,2.5c-1.38071,0 -2.5,-1.11929 -2.5,-2.5z" fill="#000000" stroke="none" stroke-width="0.5" stroke-linecap="butt"/></g><path d="M30.25,234.375c0,-28.80916 28.625,-28.625 28.625,-28.625c0,0 -4.86341,19.20747 3.80733,27.3294c9.37994,8.78625 24.81767,1.2956 24.81767,1.2956c0,0 -0.31585,27.875 -28.625,28.625c-15.80361,0.41869 -28.625,-12.81584 -28.625,-28.625z" fill="#ffeb66" stroke="none" stroke-width="0" stroke-linecap="butt"/><path d="M55.9746,247.91431c0,0 -1.54861,0.33788 -2.36191,0.28c-0.80479,-0.05726 -2.49264,-0.62545 -2.49264,-0.62545" fill="#000000" stroke="#000000" stroke-width="2" stroke-linecap="round"/><path d="M51.43333,226.99394l-4.6,1" fill="none" stroke="#000000" stroke-width="2" stroke-linecap="round"/><path d="M56.50606,225.92122l3.6,-0.4" fill="none" stroke="#000000" stroke-width="2" stroke-linecap="round"/><path d="M220.5,186h171" fill="none" stroke-opacity="0.50196" stroke="#ffffff" stroke-width="50" stroke-linecap="round"/><path d="M323.5,160.9403h132" fill="none" stroke-opacity="0.50196" stroke="#ffffff" stroke-width="35" stroke-linecap="round"/><path d="M112.5,110.9403h132" fill="none" stroke-opacity="0.50196" stroke="#ffffff" stroke-width="35" stroke-linecap="round"/><path d="M27.5,210.9403h62" fill="none" stroke-opacity="0.50196" stroke="#ffffff" stroke-width="25" stroke-linecap="round"/><path d="M343.5,244.9403h86" fill="none" stroke-opacity="0.50196" stroke="#ffffff" stroke-width="35" stroke-linecap="round"/></g></g></svg>