<svg version="1.1" xmlns="http://www.w3.org/2000/svg" xmlns:xlink="http://www.w3.org/1999/xlink" width="480" height="179.80672" viewBox="0,0,480,179.80672"><g transform="translate(0,-90.09664)"><g data-paper-data="{&quot;isPaintingLayer&quot;:true}" fill-rule="nonzero" stroke-linejoin="miter" stroke-miterlimit="10" stroke-dasharray="" stroke-dashoffset="0" style="mix-blend-mode: normal"><path d="M0,269.90336v-179.80672h480v179.80672z" fill="#ffd300" stroke="none" stroke-width="0" stroke-linecap="butt"/><g><path d="M418.5,179.875c0,-15.80916 12.81585,-28.625 28.625,-28.625c15.80915,0 28.625,12.81584 28.625,28.625c0,15.80916 -12.81585,28.625 -28.625,28.625c-15.80915,0 -28.625,-12.81584 -28.625,-28.625z" fill="#ff9300" stroke="none" stroke-width="0" stroke-linecap="butt"/><path d="M447.88167,178.07264l-4.025,0.425" fill="none" stroke="#000000" stroke-width="2" stroke-linecap="round"/><path d="M437.09618,198.17908c0,-2.01737 3.07804,-3.65278 6.875,-3.65278c3.79696,0 6.875,1.6354 6.875,3.65278c0,2.01737 -3.07804,3.65278 -6.875,3.65278c-3.79696,0 -6.875,-1.6354 -6.875,-3.65278z" fill="#000000" stroke="none" stroke-width="0.5" stroke-linecap="butt"/><path d="M432.54834,180.18375l-4.025,0.425" fill="none" stroke="#000000" stroke-width="2" stroke-linecap="round"/><path d="M449.8712,199.07283l0.01111,3.27778" fill="none" stroke="#00daff" stroke-width="2" stroke-linecap="round"/></g><text transform="translate(64.4,207.66667) scale(0.5,0.5)" font-size="40" xml:space="preserve" fill="#ffeb66" fill-rule="nonzero" stroke="none" stroke-width="1" stroke-linecap="butt" stroke-linejoin="miter" stroke-miterlimit="10" stroke-dasharray="" stroke-dashoffset="0" font-family="Sans Serif" font-weight="normal" text-anchor="start" style="mix-blend-mode: normal"><tspan x="0" dy="0">emem...</tspan></text><g><path d="M25.25,226.375c0,-28.80916 28.625,-28.625 28.625,-28.625c0,0 -4.86341,19.20747 3.80733,27.3294c9.37994,8.78625 24.81767,1.2956 24.81767,1.2956c0,0 -0.31585,27.875 -28.625,28.625c-15.80361,0.41869 -28.625,-12.81584 -28.625,-28.625z" fill="#ffeb66" stroke="none" stroke-width="0" stroke-linecap="butt"/><path d="M51.99278,218.4143c-1.38071,0 -2.5,-1.11929 -2.5,-2.5c0,-1.38071 1.11929,-2.5 2.5,-2.5c1.38071,0 2.5,1.11929 2.5,2.5c0,1.38071 -1.11929,2.5 -2.5,2.5z" fill="#000000" stroke="none" stroke-width="0.5" stroke-linecap="butt"/><path d="M42.39278,219.0143c-1.38071,0 -2.5,-1.11929 -2.5,-2.5c0,-1.38071 1.11929,-2.5 2.5,-2.5c1.38071,0 2.5,1.11929 2.5,2.5c0,1.38071 -1.11929,2.5 -2.5,2.5z" fill="#000000" stroke="none" stroke-width="0.5" stroke-linecap="butt"/><path d="M46.56667,230.15l4.66667,-0.91666" fill="none" stroke="#000000" stroke-width="2.5" stroke-linecap="round"/></g><path d="M397.5,241h-171" fill="none" stroke-opacity="0.50196" stroke="#ffffff" stroke-width="50" stroke-linecap="round"/><path d="M171.5,212.9403h132" fill="none" stroke-opacity="0.50196" stroke="#ffffff" stroke-width="35" stroke-linecap="round"/><path d="M46.5,112.9403h132" fill="none" stroke-opacity="0.50196" stroke="#ffffff" stroke-width="35" stroke-linecap="round"/><path d="M78.5,181.9403h62" fill="none" stroke-opacity="0.50196" stroke="#ffffff" stroke-width="25" stroke-linecap="round"/><path d="M376.5,122.9403h86" fill="none" stroke-opacity="0.50196" stroke="#ffffff" stroke-width="35" stroke-linecap="round"/></g></g></svg>