<svg version="1.1" xmlns="http://www.w3.org/2000/svg" xmlns:xlink="http://www.w3.org/1999/xlink" width="480" height="179.80672" viewBox="0,0,480,179.80672"><g transform="translate(0,-90.09664)"><g data-paper-data="{&quot;isPaintingLayer&quot;:true}" fill-rule="nonzero" stroke-linejoin="miter" stroke-miterlimit="10" stroke-dasharray="" stroke-dashoffset="0" style="mix-blend-mode: normal"><path d="M0,269.90336v-179.80672h480v179.80672z" fill="#00aaff" stroke="none" stroke-width="0" stroke-linecap="butt"/><g><path d="M417.58333,134.625c0,-15.80916 12.81585,-28.625 28.625,-28.625c15.80915,0 28.625,12.81584 28.625,28.625c0,15.80916 -12.81585,28.625 -28.625,28.625c-15.80915,0 -28.625,-12.81584 -28.625,-28.625z" fill="#ffdf00" stroke="none" stroke-width="0" stroke-linecap="butt"/><g fill="#000000"><path d="M443.42611,156.41431l4.4,-1.8" stroke="#000000" stroke-width="2" stroke-linecap="round"/><path d="M432.72611,129.4143c0,-1.38071 1.11929,-2.5 2.5,-2.5c1.38071,0 2.5,1.11929 2.5,2.5c0,1.38071 -1.11929,2.5 -2.5,2.5c-1.38071,0 -2.5,-1.11929 -2.5,-2.5z" stroke="none" stroke-width="0.5" stroke-linecap="butt"/><path d="M442.32611,130.0143c0,-1.38071 1.11929,-2.5 2.5,-2.5c1.38071,0 2.5,1.11929 2.5,2.5c0,1.38071 -1.11929,2.5 -2.5,2.5c-1.38071,0 -2.5,-1.11929 -2.5,-2.5z" stroke="none" stroke-width="0.5" stroke-linecap="butt"/></g></g><path d="M454.5,182h-171" fill="none" stroke-opacity="0.50196" stroke="#ffffff" stroke-width="50" stroke-linecap="round"/><path d="M201.5,158.9403h132" fill="none" stroke-opacity="0.50196" stroke="#ffffff" stroke-width="35" stroke-linecap="round"/><path d="M21.5,115.9403h132" fill="none" stroke-opacity="0.50196" stroke="#ffffff" stroke-width="35" stroke-linecap="round"/><path d="M48.5,201.9403h62" fill="none" stroke-opacity="0.50196" stroke="#ffffff" stroke-width="25" stroke-linecap="round"/><path d="M343.5,244.9403h86" fill="none" stroke-opacity="0.50196" stroke="#ffffff" stroke-width="35" stroke-linecap="round"/></g></g></svg>