<svg version="1.1" xmlns="http://www.w3.org/2000/svg" xmlns:xlink="http://www.w3.org/1999/xlink" width="480" height="179.80672" viewBox="0,0,480,179.80672"><g transform="translate(0,-90.09664)"><g data-paper-data="{&quot;isPaintingLayer&quot;:true}" fill-rule="nonzero" stroke-linejoin="miter" stroke-miterlimit="10" stroke-dasharray="" stroke-dashoffset="0" style="mix-blend-mode: normal"><path d="M0,269.90336v-179.80672h480v179.80672z" fill="#005580" stroke="none" stroke-width="0" stroke-linecap="butt"/><g><path d="M17.25,135.375c0,-28.80916 28.625,-28.625 28.625,-28.625c0,0 -4.86341,19.20747 3.80733,27.3294c9.37994,8.78625 24.81767,1.2956 24.81767,1.2956c0,0 -0.31585,27.875 -28.625,28.625c-15.80361,0.41869 -28.625,-12.81584 -28.625,-28.625z" fill="#ffeb66" stroke="none" stroke-width="0" stroke-linecap="butt"/><g data-paper-data="{&quot;index&quot;:null}" fill="#000000"><path d="M35.79278,151.91431l-4.4,-1.8" stroke="#000000" stroke-width="2" stroke-linecap="round"/><path d="M43.99278,127.4143c-1.38071,0 -2.5,-1.11929 -2.5,-2.5c0,-1.38071 1.11929,-2.5 2.5,-2.5c1.38071,0 2.5,1.11929 2.5,2.5c0,1.38071 -1.11929,2.5 -2.5,2.5z" stroke="none" stroke-width="0.5" stroke-linecap="butt"/><path d="M34.39278,128.0143c-1.38071,0 -2.5,-1.11929 -2.5,-2.5c0,-1.38071 1.11929,-2.5 2.5,-2.5c1.38071,0 2.5,1.11929 2.5,2.5c0,1.38071 -1.11929,2.5 -2.5,2.5z" stroke="none" stroke-width="0.5" stroke-linecap="butt"/></g></g><path d="M220.5,186h171" fill="none" stroke-opacity="0.50196" stroke="#ffffff" stroke-width="50" stroke-linecap="round"/><path d="M323.5,160.9403h132" fill="none" stroke-opacity="0.50196" stroke="#ffffff" stroke-width="35" stroke-linecap="round"/><path d="M112.5,110.9403h132" fill="none" stroke-opacity="0.50196" stroke="#ffffff" stroke-width="35" stroke-linecap="round"/><path d="M27.5,210.9403h62" fill="none" stroke-opacity="0.50196" stroke="#ffffff" stroke-width="25" stroke-linecap="round"/><path d="M343.5,244.9403h86" fill="none" stroke-opacity="0.50196" stroke="#ffffff" stroke-width="35" stroke-linecap="round"/></g></g></svg>